<svg viewBox="0 0 256 256" xmlns="http://www.w3.org/2000/svg" role="img" aria-labelledby="title">
  <title>TextPerfect logo</title>
  <defs>
    <linearGradient id="bg" x1="0%" y1="0%" x2="100%" y2="100%">
      <stop offset="0%" stop-color="#00d9ff" />
      <stop offset="50%" stop-color="#5f6cff" />
      <stop offset="100%" stop-color="#c477ff" />
    </linearGradient>
    <radialGradient id="glow" cx="0.4" cy="0.3" r="0.85">
      <stop offset="0%" stop-color="#ffffff" stop-opacity="0.35" />
      <stop offset="100%" stop-color="#ffffff" stop-opacity="0" />
    </radialGradient>
  </defs>
  <rect width="256" height="256" rx="56" fill="url(#bg)" />
  <circle cx="128" cy="128" r="90" fill="url(#glow)" />
  <path d="M70 128c0-34 28-62 62-62h38c34 0 62 28 62 62 0 34-28 62-62 62h-24l-22 30-22-30H70z" fill="rgba(255,255,255,0.18)" />
  <path d="M88 116c0-22 18-40 40-40h22c22 0 40 18 40 40s-18 40-40 40h-14l-12 16-12-16h-10c-22 0-40-18-40-40z" fill="rgba(255,255,255,0.28)" />
  <circle cx="100" cy="102" r="10" fill="#ffffff" opacity="0.9" />
  <circle cx="152" cy="98" r="10" fill="#ffffff" opacity="0.9" />
  <circle cx="132" cy="142" r="10" fill="#ffffff" opacity="0.9" />
  <path d="M100 100c14-18 32-22 46-14" stroke="#ffffff" stroke-width="12" stroke-linecap="round" />
  <path d="M132 88c18-2 30 6 32 22" stroke="#ffffff" stroke-width="12" stroke-linecap="round" />
  <path d="M94 128c18 4 34-2 46-18" stroke="#ffffff" stroke-width="12" stroke-linecap="round" />
  <path d="M118 150c12 0 20-8 24-18" stroke="#ffffff" stroke-width="12" stroke-linecap="round" />
  <path d="M60 188c0 18 16 32 34 32h18l14 18 14-18h16c18 0 34-14 34-32v-24" stroke="rgba(255,255,255,0.72)" stroke-width="14" fill="none" stroke-linecap="round" stroke-linejoin="round" />
  <path d="M70 170c0 12 10 22 22 22h22l12 16 12-16h16c12 0 22-10 22-22v-14" stroke="rgba(255,255,255,0.45)" stroke-width="10" fill="none" stroke-linecap="round" />
</svg>
